<svg width="53" height="16" viewBox="0 0 53 16" fill="none" xmlns="http://www.w3.org/2000/svg">
<g clip-path="url(#clip0_302_1109)">
<path d="M32.8736 12.4991C29.7973 14.7671 25.3385 15.9771 21.4996 15.9771C16.1167 15.9771 11.2708 13.9857 7.60464 10.6738C7.3166 10.4133 7.57468 10.0584 7.92033 10.2612C11.8768 12.5637 16.7688 13.9489 21.8222 13.9489C25.2302 13.9489 28.9793 13.2436 32.4265 11.7801C32.9473 11.5588 33.3828 12.1212 32.8736 12.4991Z" fill="#DADC7B"/>
<path d="M34.1524 11.0363C33.7606 10.5339 31.5531 10.7989 30.5623 10.9165C30.2604 10.9533 30.2143 10.6906 30.4862 10.5016C32.2444 9.26392 35.1294 9.62116 35.4658 10.036C35.8022 10.4532 35.3782 13.3457 33.7261 14.7262C33.4726 14.9383 33.2306 14.8254 33.3435 14.5442C33.7145 13.6176 34.5464 11.541 34.1524 11.0363Z" fill="#DADC7B"/>
<path d="M30.6307 1.76318V0.56009C30.6307 0.378012 30.769 0.255859 30.9349 0.255859H36.32C36.4928 0.255859 36.6311 0.380317 36.6311 0.56009V1.59033C36.6288 1.76318 36.4836 1.98905 36.2255 2.34629L33.435 6.33125C34.472 6.3059 35.5665 6.46032 36.5067 6.99042C36.7187 7.11027 36.7763 7.28543 36.7924 7.45829V8.74205C36.7924 8.91721 36.5988 9.12234 36.396 9.01632C34.7393 8.14742 32.5387 8.05292 30.7067 9.02554C30.5201 9.12695 30.3242 8.92413 30.3242 8.74896V7.52974C30.3242 7.33383 30.3265 6.99964 30.5224 6.70232L33.7553 2.06511H30.9418C30.7689 2.06511 30.6307 1.94296 30.6307 1.76318Z" fill="#DADC7B"/>
<path d="M10.9857 9.26997H9.34733C9.19064 9.25844 9.06621 9.1409 9.05469 8.99109V0.580958C9.05469 0.412709 9.19525 0.279031 9.37038 0.279031H10.8981C11.0571 0.28594 11.1839 0.408098 11.1954 0.560213V1.65959H11.2253C11.624 0.597089 12.3729 0.101562 13.3822 0.101562C14.4076 0.101562 15.0482 0.597089 15.509 1.65959C15.9054 0.597089 16.8064 0.101562 17.7719 0.101562C18.4585 0.101562 19.2097 0.38505 19.6683 1.02117C20.1868 1.72874 20.0808 2.75667 20.0808 3.65784L20.0785 8.96574C20.0785 9.13399 19.9379 9.26997 19.7628 9.26997H18.1267C17.9631 9.25844 17.8318 9.12707 17.8318 8.96574V4.5083C17.8318 4.15336 17.864 3.26833 17.7857 2.93183C17.6636 2.36716 17.2972 2.20813 16.8225 2.20813C16.4261 2.20813 16.0114 2.47318 15.8432 2.89726C15.6749 3.32134 15.6911 4.03121 15.6911 4.5083V8.96574C15.6911 9.13399 15.5505 9.26997 15.3754 9.26997H13.7393C13.5734 9.25844 13.4444 9.12707 13.4444 8.96574L13.4421 4.5083C13.4421 3.57025 13.5965 2.18969 12.4328 2.18969C11.2553 2.18969 11.3014 3.53568 11.3014 4.5083V8.96574C11.3014 9.13399 11.1608 9.26997 10.9857 9.26997Z" fill="#DADC7B"/>
<path d="M41.267 0.101562C43.698 0.101562 45.0137 2.18969 45.0137 4.8448C45.0137 7.41001 43.5597 9.44513 41.267 9.44513C38.8797 9.44513 37.5801 7.357 37.5801 4.75491C37.5801 2.13668 38.8958 0.101562 41.267 0.101562ZM41.2808 1.81862C40.0733 1.81862 39.9973 3.46423 39.9973 4.48986C39.9973 5.51779 39.9812 7.71194 41.267 7.71194C42.5366 7.71194 42.5965 5.94187 42.5965 4.86323C42.5965 4.15336 42.5666 3.3052 42.3523 2.63221C42.1679 2.0468 41.8016 1.81862 41.2808 1.81862Z" fill="#DADC7B"/>
<path d="M48.167 9.26997H46.5355C46.3719 9.25844 46.2406 9.12707 46.2406 8.96574L46.2383 0.553299C46.2521 0.398879 46.3881 0.279031 46.554 0.279031H48.0725C48.2154 0.28594 48.3329 0.382746 48.3651 0.514118V1.80018H48.3951C48.8537 0.6501 49.4966 0.101562 50.628 0.101562C51.363 0.101562 52.0797 0.366612 52.5405 1.09262C52.9691 1.76561 52.9691 2.89726 52.9691 3.71084V9.00492C52.9507 9.15242 52.8147 9.26997 52.6534 9.26997H51.0105C50.8607 9.25844 50.7363 9.14781 50.7201 9.00492V4.43685C50.7201 3.51724 50.8261 2.17125 49.6947 2.17125C49.2961 2.17125 48.9297 2.43861 48.7477 2.84425C48.5172 3.35821 48.4873 3.86987 48.4873 4.43685V8.96574C48.485 9.13399 48.3421 9.26997 48.167 9.26997Z" fill="#DADC7B"/>
<path d="M26.3373 5.25333V4.89839C25.1529 4.89839 23.9016 5.15192 23.9016 6.54861C23.9016 7.25618 24.268 7.73558 24.8971 7.73558C25.3579 7.73558 25.7704 7.45209 26.0308 6.99113C26.3534 6.42416 26.3373 5.89175 26.3373 5.25333ZM27.9895 9.24751C27.8812 9.34431 27.7245 9.35122 27.6023 9.28669C27.0585 8.83496 26.9617 8.62522 26.6622 8.19423C25.7635 9.11153 25.1275 9.3858 23.9615 9.3858C22.5836 9.3858 21.5098 8.53533 21.5098 6.8321C21.5098 5.50225 22.231 4.59647 23.2564 4.15395C24.1459 3.76214 25.3879 3.693 26.3373 3.58467V3.37263C26.3373 2.98312 26.3672 2.52217 26.1391 2.18567C25.9386 1.88374 25.5561 1.75929 25.2197 1.75929C24.5952 1.75929 24.0376 2.07965 23.9016 2.74343C23.874 2.89093 23.7657 3.03613 23.6182 3.04305L22.0282 2.87249C21.8946 2.84253 21.7471 2.73421 21.784 2.52908C22.1504 0.60229 23.8901 0.0214844 25.4478 0.0214844C26.2451 0.0214844 27.2866 0.233524 27.9157 0.837375C28.713 1.58182 28.637 2.57518 28.637 3.65612V6.20981C28.637 6.9773 28.955 7.3138 29.2545 7.72866C29.3605 7.87617 29.3836 8.05363 29.2499 8.16426C28.9158 8.44314 28.3213 8.96172 27.9941 9.25212L27.9895 9.24751Z" fill="#DADC7B"/>
<path d="M4.85876 5.25333V4.89839C3.67435 4.89839 2.42311 5.15192 2.42311 6.54861C2.42311 7.25618 2.7895 7.73558 3.41857 7.73558C3.87943 7.73558 4.2919 7.45209 4.55229 6.99113C4.87489 6.42416 4.85876 5.89175 4.85876 5.25333ZM6.51094 9.24751C6.40264 9.34431 6.24594 9.35122 6.12382 9.28669C5.58 8.83496 5.48322 8.62522 5.18366 8.19423C4.28499 9.11153 3.649 9.3858 2.48302 9.3858C1.10505 9.3858 0.03125 8.53533 0.03125 6.8321C0.03125 5.50225 0.752496 4.59647 1.77791 4.15395C2.66737 3.76214 3.90939 3.693 4.85876 3.58467V3.37263C4.85876 2.98312 4.88871 2.52217 4.66059 2.18567C4.46011 1.88374 4.0776 1.75929 3.74117 1.75929C3.11671 1.75929 2.55907 2.07965 2.42311 2.74343C2.39546 2.89093 2.28716 3.03613 2.13968 3.04305L0.549717 2.87249C0.416068 2.84253 0.268592 2.73421 0.305461 2.52908C0.671845 0.60229 2.41159 0.0214844 3.9693 0.0214844C4.76658 0.0214844 5.80813 0.233524 6.4372 0.837375C7.23449 1.58182 7.15845 2.57518 7.15845 3.65612V6.20981C7.15845 6.9773 7.47644 7.3138 7.776 7.72866C7.882 7.87617 7.90504 8.05363 7.77139 8.16426C7.43727 8.44314 6.84276 8.96172 6.51555 9.25212L6.51094 9.24751Z" fill="#DADC7B"/>
</g>
<defs>
<clipPath id="clip0_302_1109">
<rect width="53" height="16" fill="white"/>
</clipPath>
</defs>
</svg>
