<svg width="66" height="8" viewBox="0 0 66 8" fill="none" xmlns="http://www.w3.org/2000/svg">
<g clip-path="url(#clip0_302_1118)">
<path d="M32.9086 8.09879C26.7374 7.65879 27.5648 -0.25798 33.8005 0.162665C34.6819 0.22202 35.5529 0.474278 36.3436 0.874923V2.80976C36.0025 2.65363 35.7277 2.39815 35.3842 2.23879C33.9851 1.59041 31.5303 1.5575 30.6127 3.07234C29.6148 4.71879 31.1899 6.3375 32.7565 6.48525C33.1491 6.52202 35.1542 6.4117 35.291 5.99234L35.3008 5.1317H33.1846L33.0926 5.03492V3.51944H36.8343V6.90589C35.924 7.75428 34.623 8.02395 33.4355 8.04008L33.338 8.09944H32.9086V8.09879Z" fill="#DADC7B"/>
<path d="M-0.0306366 0.292976C0.0276348 0.16846 0.055237 0.170395 0.178527 0.159427C1.46234 0.0491047 4.65929 0.0420079 5.79527 0.520072C8.69106 1.73943 8.65487 6.09878 5.77687 7.40007C4.61758 7.92394 1.51141 7.87685 0.177914 7.78007C0.0540102 7.77104 0.0276348 7.7691 -0.03125 7.64652V0.292976H-0.0306366ZM1.56416 6.22717H4.47773C5.05308 6.22717 5.95046 5.39104 6.16576 4.84201C6.70676 3.46265 5.72719 1.71233 4.29371 1.71233H1.56416V6.22717Z" fill="#DADC7B"/>
<path d="M65.9701 3.77762V4.16471C65.9087 6.01891 64.1281 7.77697 62.3818 7.77697H57.9961V0.16536C59.6633 0.279553 61.585 -0.052705 63.2105 0.326005C64.731 0.680198 65.8664 2.146 65.9701 3.77762ZM59.5296 6.22858H62.4431C62.7431 6.22858 63.5429 5.72858 63.7613 5.486C64.9764 4.13697 64.0201 1.7131 62.3204 1.7131H59.5296V6.22794V6.22858Z" fill="#DADC7B"/>
<path d="M24.6581 0.292969C25.0225 0.344582 25.6598 0.685872 25.945 0.93942C27.1932 2.04974 26.9295 4.39103 25.4255 5.09748L26.9583 7.83942H25.0568L23.738 5.38845H20.8245V7.83942H19.291V0.292969H24.6581ZM24.1674 1.84136H20.8245V3.77619H24.2901C24.5373 3.77619 25.0458 3.382 25.104 3.08458C25.2439 2.37039 24.8158 1.93232 24.1674 1.84136Z" fill="#DADC7B"/>
<path d="M18.1862 7.84003H16.3767C16.1074 7.52261 15.867 6.72132 15.6131 6.44971C15.529 6.35939 15.4536 6.34455 15.337 6.35293L11.1722 6.36713L10.3036 7.84068H8.49414L12.6332 0.289062L14.1698 0.35745L18.1868 7.84068L18.1862 7.84003ZM14.6899 4.80842L13.3705 2.35745L11.991 4.80842H14.6899Z" fill="#DADC7B"/>
<path d="M47.3829 7.8399H45.6347L44.8717 6.46636L44.7508 6.38442L40.4326 6.36829C40.2492 6.427 39.7045 7.58248 39.5929 7.8399H37.6914L41.7367 0.387001C41.9366 0.191517 43.0156 0.314743 43.3351 0.325711L47.3829 7.84055V7.8399ZM43.8866 4.80829L42.5678 2.2941L41.249 4.80829H43.8866Z" fill="#DADC7B"/>
<path d="M49.7756 0.164062V4.45309C49.7756 4.67697 49.875 5.206 49.9425 5.4389C50.1848 6.26987 50.8196 6.44148 51.5857 6.48471C52.3285 6.52664 53.4038 6.45632 53.7314 5.646C53.8019 5.47051 53.9466 4.87826 53.9466 4.71116V0.164062H55.5414C55.501 1.46148 55.5948 2.77245 55.5439 4.06922C55.458 6.24987 55.1403 7.84987 52.753 8.03568C51.5489 8.12922 49.5622 8.12148 48.8047 6.95826C48.5661 6.5918 48.2422 5.59309 48.2422 5.16277V0.164062H49.7756Z" fill="#DADC7B"/>
</g>
<defs>
<clipPath id="clip0_302_1118">
<rect width="66" height="8" fill="white"/>
</clipPath>
</defs>
</svg>
